<svg xmlns="http://www.w3.org/2000/svg" xmlns:xlink="http://www.w3.org/1999/xlink" width="512" zoomAndPan="magnify" viewBox="0 0 384 383.999986" height="512" preserveAspectRatio="xMidYMid meet" version="1.0"><defs><clipPath id="7c49255beb"><path d="M 146 143 L 235 143 L 235 233 L 146 233 Z M 146 143 " clip-rule="nonzero"/></clipPath><clipPath id="9445cf47d6"><path d="M -15.835938 135.144531 L 242.40625 -19.007812 L 396.9375 239.875 L 138.699219 394.027344 Z M -15.835938 135.144531 " clip-rule="nonzero"/></clipPath><clipPath id="f52c3fcb1a"><path d="M -15.835938 135.144531 L 242.40625 -19.007812 L 396.9375 239.875 L 138.699219 394.027344 Z M -15.835938 135.144531 " clip-rule="nonzero"/></clipPath><clipPath id="0616810c31"><path d="M -15.835938 135.144531 L 242.402344 -19.007812 L 396.9375 239.875 L 138.699219 394.027344 Z M -15.835938 135.144531 " clip-rule="nonzero"/></clipPath><clipPath id="4d0d3667e5"><path d="M 35 33 L 346 33 L 346 344 L 35 344 Z M 35 33 " clip-rule="nonzero"/></clipPath><clipPath id="10ddcd9121"><path d="M -15.835938 135.144531 L 242.40625 -19.007812 L 396.9375 239.875 L 138.699219 394.027344 Z M -15.835938 135.144531 " clip-rule="nonzero"/></clipPath><clipPath id="962b003d40"><path d="M -15.835938 135.144531 L 242.40625 -19.007812 L 396.9375 239.875 L 138.699219 394.027344 Z M -15.835938 135.144531 " clip-rule="nonzero"/></clipPath><clipPath id="610e9e390b"><path d="M -15.835938 135.144531 L 242.402344 -19.007812 L 396.9375 239.875 L 138.699219 394.027344 Z M -15.835938 135.144531 " clip-rule="nonzero"/></clipPath><clipPath id="a7a8eef75a"><path d="M 40 38 L 340 38 L 340 338 L 40 338 Z M 40 38 " clip-rule="nonzero"/></clipPath><clipPath id="f953f9a3ef"><path d="M -15.835938 135.144531 L 242.40625 -19.007812 L 396.9375 239.875 L 138.699219 394.027344 Z M -15.835938 135.144531 " clip-rule="nonzero"/></clipPath><clipPath id="1be29768c0"><path d="M -15.835938 135.144531 L 242.40625 -19.007812 L 396.9375 239.875 L 138.699219 394.027344 Z M -15.835938 135.144531 " clip-rule="nonzero"/></clipPath><clipPath id="f79d1bc54a"><path d="M -15.835938 135.144531 L 242.402344 -19.007812 L 396.9375 239.875 L 138.699219 394.027344 Z M -15.835938 135.144531 " clip-rule="nonzero"/></clipPath><clipPath id="2fc454fe11"><path d="M 102 100 L 279 100 L 279 277 L 102 277 Z M 102 100 " clip-rule="nonzero"/></clipPath><clipPath id="cf51417fd1"><path d="M -15.835938 135.144531 L 242.40625 -19.007812 L 396.9375 239.875 L 138.699219 394.027344 Z M -15.835938 135.144531 " clip-rule="nonzero"/></clipPath><clipPath id="e59a3af653"><path d="M -15.835938 135.144531 L 242.40625 -19.007812 L 396.9375 239.875 L 138.699219 394.027344 Z M -15.835938 135.144531 " clip-rule="nonzero"/></clipPath><clipPath id="2385868a37"><path d="M -15.835938 135.144531 L 242.402344 -19.007812 L 396.9375 239.875 L 138.699219 394.027344 Z M -15.835938 135.144531 " clip-rule="nonzero"/></clipPath><clipPath id="ce40c2d1e5"><path d="M 246 121 L 256 121 L 256 130 L 246 130 Z M 246 121 " clip-rule="nonzero"/></clipPath><clipPath id="9826d0c690"><path d="M -15.835938 135.144531 L 242.40625 -19.007812 L 396.9375 239.875 L 138.699219 394.027344 Z M -15.835938 135.144531 " clip-rule="nonzero"/></clipPath><clipPath id="72282e56aa"><path d="M -15.835938 135.144531 L 242.40625 -19.007812 L 396.9375 239.875 L 138.699219 394.027344 Z M -15.835938 135.144531 " clip-rule="nonzero"/></clipPath><clipPath id="c283b9f3be"><path d="M -15.835938 135.144531 L 242.402344 -19.007812 L 396.9375 239.875 L 138.699219 394.027344 Z M -15.835938 135.144531 " clip-rule="nonzero"/></clipPath><clipPath id="0838d84ca3"><path d="M 231 105 L 271 105 L 271 146 L 231 146 Z M 231 105 " clip-rule="nonzero"/></clipPath><clipPath id="b18a57ca0a"><path d="M -15.835938 135.144531 L 242.40625 -19.007812 L 396.9375 239.875 L 138.699219 394.027344 Z M -15.835938 135.144531 " clip-rule="nonzero"/></clipPath><clipPath id="a9d571d817"><path d="M -15.835938 135.144531 L 242.40625 -19.007812 L 396.9375 239.875 L 138.699219 394.027344 Z M -15.835938 135.144531 " clip-rule="nonzero"/></clipPath><clipPath id="286e728353"><path d="M -15.835938 135.144531 L 242.402344 -19.007812 L 396.9375 239.875 L 138.699219 394.027344 Z M -15.835938 135.144531 " clip-rule="nonzero"/></clipPath><clipPath id="8d7aca526e"><path d="M 248 244 L 258 244 L 258 253 L 248 253 Z M 248 244 " clip-rule="nonzero"/></clipPath><clipPath id="e266a42e4a"><path d="M -15.835938 135.144531 L 242.40625 -19.007812 L 396.9375 239.875 L 138.699219 394.027344 Z M -15.835938 135.144531 " clip-rule="nonzero"/></clipPath><clipPath id="1bdb9e2a4d"><path d="M -15.835938 135.144531 L 242.40625 -19.007812 L 396.9375 239.875 L 138.699219 394.027344 Z M -15.835938 135.144531 " clip-rule="nonzero"/></clipPath><clipPath id="c2d2446904"><path d="M -15.835938 135.144531 L 242.402344 -19.007812 L 396.9375 239.875 L 138.699219 394.027344 Z M -15.835938 135.144531 " clip-rule="nonzero"/></clipPath><clipPath id="dbb281338a"><path d="M 233 228 L 273 228 L 273 269 L 233 269 Z M 233 228 " clip-rule="nonzero"/></clipPath><clipPath id="885e9ce825"><path d="M -15.835938 135.144531 L 242.40625 -19.007812 L 396.9375 239.875 L 138.699219 394.027344 Z M -15.835938 135.144531 " clip-rule="nonzero"/></clipPath><clipPath id="cdbe235a8a"><path d="M -15.835938 135.144531 L 242.40625 -19.007812 L 396.9375 239.875 L 138.699219 394.027344 Z M -15.835938 135.144531 " clip-rule="nonzero"/></clipPath><clipPath id="248e333a11"><path d="M -15.835938 135.144531 L 242.402344 -19.007812 L 396.9375 239.875 L 138.699219 394.027344 Z M -15.835938 135.144531 " clip-rule="nonzero"/></clipPath><clipPath id="9676bbd71e"><path d="M 125 246 L 135 246 L 135 255 L 125 255 Z M 125 246 " clip-rule="nonzero"/></clipPath><clipPath id="0fa2bcd0f9"><path d="M -15.835938 135.144531 L 242.40625 -19.007812 L 396.9375 239.875 L 138.699219 394.027344 Z M -15.835938 135.144531 " clip-rule="nonzero"/></clipPath><clipPath id="d44fb296f4"><path d="M -15.835938 135.144531 L 242.40625 -19.007812 L 396.9375 239.875 L 138.699219 394.027344 Z M -15.835938 135.144531 " clip-rule="nonzero"/></clipPath><clipPath id="b4bea474d2"><path d="M -15.835938 135.144531 L 242.402344 -19.007812 L 396.9375 239.875 L 138.699219 394.027344 Z M -15.835938 135.144531 " clip-rule="nonzero"/></clipPath><clipPath id="be98a7858e"><path d="M 110 230 L 150 230 L 150 271 L 110 271 Z M 110 230 " clip-rule="nonzero"/></clipPath><clipPath id="88a0a27d0d"><path d="M -15.835938 135.144531 L 242.40625 -19.007812 L 396.9375 239.875 L 138.699219 394.027344 Z M -15.835938 135.144531 " clip-rule="nonzero"/></clipPath><clipPath id="b1452ea831"><path d="M -15.835938 135.144531 L 242.40625 -19.007812 L 396.9375 239.875 L 138.699219 394.027344 Z M -15.835938 135.144531 " clip-rule="nonzero"/></clipPath><clipPath id="7ff7255042"><path d="M -15.835938 135.144531 L 242.402344 -19.007812 L 396.9375 239.875 L 138.699219 394.027344 Z M -15.835938 135.144531 " clip-rule="nonzero"/></clipPath><clipPath id="55e64b92b7"><path d="M 123 123 L 133 123 L 133 132 L 123 132 Z M 123 123 " clip-rule="nonzero"/></clipPath><clipPath id="a54948a7ac"><path d="M -15.835938 135.144531 L 242.40625 -19.007812 L 396.9375 239.875 L 138.699219 394.027344 Z M -15.835938 135.144531 " clip-rule="nonzero"/></clipPath><clipPath id="111af3c4ea"><path d="M -15.835938 135.144531 L 242.40625 -19.007812 L 396.9375 239.875 L 138.699219 394.027344 Z M -15.835938 135.144531 " clip-rule="nonzero"/></clipPath><clipPath id="16ed10f143"><path d="M -15.835938 135.144531 L 242.402344 -19.007812 L 396.9375 239.875 L 138.699219 394.027344 Z M -15.835938 135.144531 " clip-rule="nonzero"/></clipPath><clipPath id="6e4b641426"><path d="M 108 107 L 148 107 L 148 148 L 108 148 Z M 108 107 " clip-rule="nonzero"/></clipPath><clipPath id="e56671da5c"><path d="M -15.835938 135.144531 L 242.40625 -19.007812 L 396.9375 239.875 L 138.699219 394.027344 Z M -15.835938 135.144531 " clip-rule="nonzero"/></clipPath><clipPath id="1df4d1a96f"><path d="M -15.835938 135.144531 L 242.40625 -19.007812 L 396.9375 239.875 L 138.699219 394.027344 Z M -15.835938 135.144531 " clip-rule="nonzero"/></clipPath><clipPath id="f0efd67723"><path d="M -15.835938 135.144531 L 242.402344 -19.007812 L 396.9375 239.875 L 138.699219 394.027344 Z M -15.835938 135.144531 " clip-rule="nonzero"/></clipPath><clipPath id="f64f97201a"><path d="M 111 109 L 270 109 L 270 268 L 111 268 Z M 111 109 " clip-rule="nonzero"/></clipPath><clipPath id="694e3891ca"><path d="M -15.835938 135.144531 L 242.40625 -19.007812 L 396.9375 239.875 L 138.699219 394.027344 Z M -15.835938 135.144531 " clip-rule="nonzero"/></clipPath><clipPath id="3f036ce533"><path d="M -15.835938 135.144531 L 242.40625 -19.007812 L 396.9375 239.875 L 138.699219 394.027344 Z M -15.835938 135.144531 " clip-rule="nonzero"/></clipPath><clipPath id="f5ec57f851"><path d="M -15.835938 135.144531 L 242.402344 -19.007812 L 396.9375 239.875 L 138.699219 394.027344 Z M -15.835938 135.144531 " clip-rule="nonzero"/></clipPath><clipPath id="a7806ce0ac"><path d="M 139 136 L 242 136 L 242 240 L 139 240 Z M 139 136 " clip-rule="nonzero"/></clipPath><clipPath id="09261826d0"><path d="M -15.835938 135.144531 L 242.40625 -19.007812 L 396.9375 239.875 L 138.699219 394.027344 Z M -15.835938 135.144531 " clip-rule="nonzero"/></clipPath><clipPath id="a3f4bb6ed0"><path d="M -15.835938 135.144531 L 242.40625 -19.007812 L 396.9375 239.875 L 138.699219 394.027344 Z M -15.835938 135.144531 " clip-rule="nonzero"/></clipPath><clipPath id="7f25e88781"><path d="M -15.835938 135.144531 L 242.402344 -19.007812 L 396.9375 239.875 L 138.699219 394.027344 Z M -15.835938 135.144531 " clip-rule="nonzero"/></clipPath><clipPath id="736a89793a"><path d="M 79 77 L 302 77 L 302 299 L 79 299 Z M 79 77 " clip-rule="nonzero"/></clipPath><clipPath id="1e3b76de6d"><path d="M -15.835938 135.144531 L 242.40625 -19.007812 L 396.9375 239.875 L 138.699219 394.027344 Z M -15.835938 135.144531 " clip-rule="nonzero"/></clipPath><clipPath id="bdfac5d3e6"><path d="M -15.835938 135.144531 L 242.40625 -19.007812 L 396.9375 239.875 L 138.699219 394.027344 Z M -15.835938 135.144531 " clip-rule="nonzero"/></clipPath><clipPath id="f69a212a55"><path d="M -15.835938 135.144531 L 242.402344 -19.007812 L 396.9375 239.875 L 138.699219 394.027344 Z M -15.835938 135.144531 " clip-rule="nonzero"/></clipPath><clipPath id="8692919fab"><path d="M 78 76 L 302 76 L 302 300 L 78 300 Z M 78 76 " clip-rule="nonzero"/></clipPath><clipPath id="0a8380e429"><path d="M -15.835938 135.144531 L 242.40625 -19.007812 L 396.9375 239.875 L 138.699219 394.027344 Z M -15.835938 135.144531 " clip-rule="nonzero"/></clipPath><clipPath id="8ee5071995"><path d="M -15.835938 135.144531 L 242.40625 -19.007812 L 396.9375 239.875 L 138.699219 394.027344 Z M -15.835938 135.144531 " clip-rule="nonzero"/></clipPath><clipPath id="0beaeb1fa6"><path d="M -15.835938 135.144531 L 242.402344 -19.007812 L 396.9375 239.875 L 138.699219 394.027344 Z M -15.835938 135.144531 " clip-rule="nonzero"/></clipPath><clipPath id="d45ce73048"><path d="M 138 136 L 243 136 L 243 240 L 138 240 Z M 138 136 " clip-rule="nonzero"/></clipPath><clipPath id="3edc19aa31"><path d="M -15.835938 135.144531 L 242.40625 -19.007812 L 396.9375 239.875 L 138.699219 394.027344 Z M -15.835938 135.144531 " clip-rule="nonzero"/></clipPath><clipPath id="c6da858c45"><path d="M -15.835938 135.144531 L 242.40625 -19.007812 L 396.9375 239.875 L 138.699219 394.027344 Z M -15.835938 135.144531 " clip-rule="nonzero"/></clipPath><clipPath id="c02de4eeb3"><path d="M -15.835938 135.144531 L 242.402344 -19.007812 L 396.9375 239.875 L 138.699219 394.027344 Z M -15.835938 135.144531 " clip-rule="nonzero"/></clipPath><clipPath id="904379f040"><path d="M 198 179 L 284 179 L 284 187 L 198 187 Z M 198 179 " clip-rule="nonzero"/></clipPath><clipPath id="32bcd6cbf4"><path d="M -15.835938 135.144531 L 242.40625 -19.007812 L 396.9375 239.875 L 138.699219 394.027344 Z M -15.835938 135.144531 " clip-rule="nonzero"/></clipPath><clipPath id="cef0c71ea7"><path d="M -15.835938 135.144531 L 242.40625 -19.007812 L 396.9375 239.875 L 138.699219 394.027344 Z M -15.835938 135.144531 " clip-rule="nonzero"/></clipPath><clipPath id="aac2a10cfd"><path d="M -15.835938 135.144531 L 242.402344 -19.007812 L 396.9375 239.875 L 138.699219 394.027344 Z M -15.835938 135.144531 " clip-rule="nonzero"/></clipPath><clipPath id="96c701dac8"><path d="M 192 194 L 200 194 L 200 281 L 192 281 Z M 192 194 " clip-rule="nonzero"/></clipPath><clipPath id="ab342f0dfb"><path d="M -15.835938 135.144531 L 242.40625 -19.007812 L 396.9375 239.875 L 138.699219 394.027344 Z M -15.835938 135.144531 " clip-rule="nonzero"/></clipPath><clipPath id="b85e1ba23e"><path d="M -15.835938 135.144531 L 242.40625 -19.007812 L 396.9375 239.875 L 138.699219 394.027344 Z M -15.835938 135.144531 " clip-rule="nonzero"/></clipPath><clipPath id="364f9d6d23"><path d="M -15.835938 135.144531 L 242.402344 -19.007812 L 396.9375 239.875 L 138.699219 394.027344 Z M -15.835938 135.144531 " clip-rule="nonzero"/></clipPath><clipPath id="6d2e34e01b"><path d="M 97 190 L 183 190 L 183 197 L 97 197 Z M 97 190 " clip-rule="nonzero"/></clipPath><clipPath id="2b564a8eb5"><path d="M -15.835938 135.144531 L 242.40625 -19.007812 L 396.9375 239.875 L 138.699219 394.027344 Z M -15.835938 135.144531 " clip-rule="nonzero"/></clipPath><clipPath id="5af5dfa4ba"><path d="M -15.835938 135.144531 L 242.40625 -19.007812 L 396.9375 239.875 L 138.699219 394.027344 Z M -15.835938 135.144531 " clip-rule="nonzero"/></clipPath><clipPath id="7a86088405"><path d="M -15.835938 135.144531 L 242.402344 -19.007812 L 396.9375 239.875 L 138.699219 394.027344 Z M -15.835938 135.144531 " clip-rule="nonzero"/></clipPath><clipPath id="3bfeeae5d2"><path d="M 181 95 L 189 95 L 189 181 L 181 181 Z M 181 95 " clip-rule="nonzero"/></clipPath><clipPath id="b2c677c3e3"><path d="M -15.835938 135.144531 L 242.40625 -19.007812 L 396.9375 239.875 L 138.699219 394.027344 Z M -15.835938 135.144531 " clip-rule="nonzero"/></clipPath><clipPath id="c569465cb2"><path d="M -15.835938 135.144531 L 242.40625 -19.007812 L 396.9375 239.875 L 138.699219 394.027344 Z M -15.835938 135.144531 " clip-rule="nonzero"/></clipPath><clipPath id="a12a25b2cf"><path d="M -15.835938 135.144531 L 242.402344 -19.007812 L 396.9375 239.875 L 138.699219 394.027344 Z M -15.835938 135.144531 " clip-rule="nonzero"/></clipPath><clipPath id="8d3c36e629"><path d="M 177 175 L 204 175 L 204 202 L 177 202 Z M 177 175 " clip-rule="nonzero"/></clipPath><clipPath id="2fec770a4c"><path d="M -15.835938 135.144531 L 242.40625 -19.007812 L 396.9375 239.875 L 138.699219 394.027344 Z M -15.835938 135.144531 " clip-rule="nonzero"/></clipPath><clipPath id="9c2840a18d"><path d="M -15.835938 135.144531 L 242.40625 -19.007812 L 396.9375 239.875 L 138.699219 394.027344 Z M -15.835938 135.144531 " clip-rule="nonzero"/></clipPath><clipPath id="6b1ffbeacb"><path d="M -15.835938 135.144531 L 242.402344 -19.007812 L 396.9375 239.875 L 138.699219 394.027344 Z M -15.835938 135.144531 " clip-rule="nonzero"/></clipPath><clipPath id="e377f7438f"><path d="M 176 174 L 205 174 L 205 202 L 176 202 Z M 176 174 " clip-rule="nonzero"/></clipPath><clipPath id="6eacb137f3"><path d="M -15.835938 135.144531 L 242.40625 -19.007812 L 396.9375 239.875 L 138.699219 394.027344 Z M -15.835938 135.144531 " clip-rule="nonzero"/></clipPath><clipPath id="086fae99ff"><path d="M -15.835938 135.144531 L 242.40625 -19.007812 L 396.9375 239.875 L 138.699219 394.027344 Z M -15.835938 135.144531 " clip-rule="nonzero"/></clipPath><clipPath id="87d44cdfe9"><path d="M -15.835938 135.144531 L 242.402344 -19.007812 L 396.9375 239.875 L 138.699219 394.027344 Z M -15.835938 135.144531 " clip-rule="nonzero"/></clipPath><clipPath id="a675e53a04"><path d="M 179 17 L 199 17 L 199 32 L 179 32 Z M 179 17 " clip-rule="nonzero"/></clipPath><clipPath id="cc07e0dd67"><path d="M -15.835938 135.144531 L 242.40625 -19.007812 L 396.9375 239.875 L 138.699219 394.027344 Z M -15.835938 135.144531 " clip-rule="nonzero"/></clipPath><clipPath id="e6b43da12b"><path d="M -15.835938 135.144531 L 242.40625 -19.007812 L 396.9375 239.875 L 138.699219 394.027344 Z M -15.835938 135.144531 " clip-rule="nonzero"/></clipPath><clipPath id="f134a00c81"><path d="M -15.835938 135.144531 L 242.402344 -19.007812 L 396.9375 239.875 L 138.699219 394.027344 Z M -15.835938 135.144531 " clip-rule="nonzero"/></clipPath><clipPath id="f0f0e2448e"><path d="M 186 345 L 200 345 L 200 360 L 186 360 Z M 186 345 " clip-rule="nonzero"/></clipPath><clipPath id="1bfc976e8b"><path d="M -15.835938 135.144531 L 242.40625 -19.007812 L 396.9375 239.875 L 138.699219 394.027344 Z M -15.835938 135.144531 " clip-rule="nonzero"/></clipPath><clipPath id="9c8cb6e6b0"><path d="M -15.835938 135.144531 L 242.40625 -19.007812 L 396.9375 239.875 L 138.699219 394.027344 Z M -15.835938 135.144531 " clip-rule="nonzero"/></clipPath><clipPath id="036286d499"><path d="M -15.835938 135.144531 L 242.402344 -19.007812 L 396.9375 239.875 L 138.699219 394.027344 Z M -15.835938 135.144531 " clip-rule="nonzero"/></clipPath><clipPath id="9f44e61b42"><path d="M 13 182 L 37 182 L 37 197 L 13 197 Z M 13 182 " clip-rule="nonzero"/></clipPath><clipPath id="d14d3db0db"><path d="M -15.835938 135.144531 L 242.40625 -19.007812 L 396.9375 239.875 L 138.699219 394.027344 Z M -15.835938 135.144531 " clip-rule="nonzero"/></clipPath><clipPath id="11b26c0e8a"><path d="M -15.835938 135.144531 L 242.40625 -19.007812 L 396.9375 239.875 L 138.699219 394.027344 Z M -15.835938 135.144531 " clip-rule="nonzero"/></clipPath><clipPath id="899d88047b"><path d="M -15.835938 135.144531 L 242.402344 -19.007812 L 396.9375 239.875 L 138.699219 394.027344 Z M -15.835938 135.144531 " clip-rule="nonzero"/></clipPath><clipPath id="386b2adb16"><path d="M 345 178 L 361 178 L 361 192 L 345 192 Z M 345 178 " clip-rule="nonzero"/></clipPath><clipPath id="cdd24bff91"><path d="M -15.835938 135.144531 L 242.40625 -19.007812 L 396.9375 239.875 L 138.699219 394.027344 Z M -15.835938 135.144531 " clip-rule="nonzero"/></clipPath><clipPath id="d146e6c890"><path d="M -15.835938 135.144531 L 242.40625 -19.007812 L 396.9375 239.875 L 138.699219 394.027344 Z M -15.835938 135.144531 " clip-rule="nonzero"/></clipPath><clipPath id="f501482019"><path d="M -15.835938 135.144531 L 242.402344 -19.007812 L 396.9375 239.875 L 138.699219 394.027344 Z M -15.835938 135.144531 " clip-rule="nonzero"/></clipPath><clipPath id="712a537adf"><path d="M 182 18 L 196 18 L 196 32 L 182 32 Z M 182 18 " clip-rule="nonzero"/></clipPath><clipPath id="2de8c5556c"><path d="M -15.835938 135.144531 L 242.40625 -19.007812 L 396.9375 239.875 L 138.699219 394.027344 Z M -15.835938 135.144531 " clip-rule="nonzero"/></clipPath><clipPath id="98b4d992f7"><path d="M -15.835938 135.144531 L 242.40625 -19.007812 L 396.9375 239.875 L 138.699219 394.027344 Z M -15.835938 135.144531 " clip-rule="nonzero"/></clipPath><clipPath id="bb5732f354"><path d="M -15.835938 135.144531 L 242.402344 -19.007812 L 396.9375 239.875 L 138.699219 394.027344 Z M -15.835938 135.144531 " clip-rule="nonzero"/></clipPath><clipPath id="251811ef14"><path d="M 187 347 L 200 347 L 200 358 L 187 358 Z M 187 347 " clip-rule="nonzero"/></clipPath><clipPath id="cba241a82f"><path d="M -15.835938 135.144531 L 242.40625 -19.007812 L 396.9375 239.875 L 138.699219 394.027344 Z M -15.835938 135.144531 " clip-rule="nonzero"/></clipPath><clipPath id="63a21df5ce"><path d="M -15.835938 135.144531 L 242.40625 -19.007812 L 396.9375 239.875 L 138.699219 394.027344 Z M -15.835938 135.144531 " clip-rule="nonzero"/></clipPath><clipPath id="9ebed21954"><path d="M -15.835938 135.144531 L 242.402344 -19.007812 L 396.9375 239.875 L 138.699219 394.027344 Z M -15.835938 135.144531 " clip-rule="nonzero"/></clipPath><clipPath id="7038f3e3ef"><path d="M 16 183 L 35 183 L 35 196 L 16 196 Z M 16 183 " clip-rule="nonzero"/></clipPath><clipPath id="4ea9fed12a"><path d="M -15.835938 135.144531 L 242.40625 -19.007812 L 396.9375 239.875 L 138.699219 394.027344 Z M -15.835938 135.144531 " clip-rule="nonzero"/></clipPath><clipPath id="a449f0de8b"><path d="M -15.835938 135.144531 L 242.40625 -19.007812 L 396.9375 239.875 L 138.699219 394.027344 Z M -15.835938 135.144531 " clip-rule="nonzero"/></clipPath><clipPath id="9e8edf3ac6"><path d="M -15.835938 135.144531 L 242.402344 -19.007812 L 396.9375 239.875 L 138.699219 394.027344 Z M -15.835938 135.144531 " clip-rule="nonzero"/></clipPath><clipPath id="7aa11c45da"><path d="M 348 178 L 360 178 L 360 192 L 348 192 Z M 348 178 " clip-rule="nonzero"/></clipPath><clipPath id="93292916c1"><path d="M -15.835938 135.144531 L 242.40625 -19.007812 L 396.9375 239.875 L 138.699219 394.027344 Z M -15.835938 135.144531 " clip-rule="nonzero"/></clipPath><clipPath id="be31d400bb"><path d="M -15.835938 135.144531 L 242.40625 -19.007812 L 396.9375 239.875 L 138.699219 394.027344 Z M -15.835938 135.144531 " clip-rule="nonzero"/></clipPath><clipPath id="a2655af327"><path d="M -15.835938 135.144531 L 242.402344 -19.007812 L 396.9375 239.875 L 138.699219 394.027344 Z M -15.835938 135.144531 " clip-rule="nonzero"/></clipPath><clipPath id="c5f4ff1eeb"><path d="M 180 188 L 199 188 L 199 199 L 180 199 Z M 180 188 " clip-rule="nonzero"/></clipPath><clipPath id="68f11ce613"><path d="M -15.835938 135.144531 L 242.40625 -19.007812 L 396.9375 239.875 L 138.699219 394.027344 Z M -15.835938 135.144531 " clip-rule="nonzero"/></clipPath><clipPath id="d7dd53ed85"><path d="M -15.835938 135.144531 L 242.40625 -19.007812 L 396.9375 239.875 L 138.699219 394.027344 Z M -15.835938 135.144531 " clip-rule="nonzero"/></clipPath><clipPath id="0bf6a3636c"><path d="M -15.835938 135.144531 L 242.402344 -19.007812 L 396.9375 239.875 L 138.699219 394.027344 Z M -15.835938 135.144531 " clip-rule="nonzero"/></clipPath><clipPath id="f323d8fc97"><path d="M 186 176 L 202 176 L 202 191 L 186 191 Z M 186 176 " clip-rule="nonzero"/></clipPath><clipPath id="8b47bea8eb"><path d="M -15.835938 135.144531 L 242.40625 -19.007812 L 396.9375 239.875 L 138.699219 394.027344 Z M -15.835938 135.144531 " clip-rule="nonzero"/></clipPath><clipPath id="bb8df6c439"><path d="M -15.835938 135.144531 L 242.40625 -19.007812 L 396.9375 239.875 L 138.699219 394.027344 Z M -15.835938 135.144531 " clip-rule="nonzero"/></clipPath><clipPath id="4b24e9c84c"><path d="M -15.835938 135.144531 L 242.402344 -19.007812 L 396.9375 239.875 L 138.699219 394.027344 Z M -15.835938 135.144531 " clip-rule="nonzero"/></clipPath></defs><g clip-path="url(#7c49255beb)"><g clip-path="url(#9445cf47d6)"><g clip-path="url(#f52c3fcb1a)"><g clip-path="url(#0616810c31)"><path stroke-linecap="butt" transform="matrix(0.528624, -0.315549, 0.315181, 0.528007, -15.682332, 135.050865)" fill="none" stroke-linejoin="round" d="M 312.361002 227.319135 C 319.181487 252.775722 312.470846 277.825023 293.837946 296.459524 C 275.196345 315.096224 250.151145 321.805067 224.694507 314.988436 C 199.235672 308.163095 180.897861 289.828091 174.077376 264.371504 C 167.25689 238.914917 173.972979 213.868872 192.60588 195.234371 C 211.242033 176.594415 236.287232 169.885572 261.749319 176.705459 C 287.188556 183.526488 305.523115 201.866946 312.349049 227.326789 " stroke="#000000" stroke-width="0.589" stroke-opacity="1" stroke-miterlimit="10"/></g></g></g></g><g clip-path="url(#4d0d3667e5)"><g clip-path="url(#10ddcd9121)"><g clip-path="url(#962b003d40)"><g clip-path="url(#610e9e390b)"><path fill="#fffcfc" d="M 173.105469 188.367188 L 35.328125 190.445312 Z M 190.132812 170.851562 L 188.199219 33.148438 Z M 207.640625 187.847656 L 345.421875 185.769531 Z M 190.617188 205.367188 L 192.554688 343.070312 Z M 190.617188 205.367188 " fill-opacity="1" fill-rule="evenodd"/></g></g></g></g><g clip-path="url(#a7a8eef75a)"><g clip-path="url(#f953f9a3ef)"><g clip-path="url(#1be29768c0)"><g clip-path="url(#f79d1bc54a)"><path fill="#000000" d="M 168.945312 189.039062 L 167.726562 189.058594 L 167.710938 187.839844 L 168.929688 187.820312 Z M 153.085938 189.28125 L 151.867188 189.296875 L 151.847656 188.078125 L 153.066406 188.058594 Z M 137.222656 189.519531 L 136.003906 189.539062 L 135.988281 188.316406 L 137.207031 188.300781 Z M 121.363281 189.757812 L 120.144531 189.777344 L 120.125 188.558594 L 121.347656 188.539062 Z M 105.503906 189.996094 L 104.28125 190.015625 L 104.265625 188.796875 L 105.484375 188.777344 Z M 89.640625 190.234375 L 88.421875 190.253906 L 88.40625 189.035156 L 89.625 189.015625 Z M 73.78125 190.476562 L 72.5625 190.492188 L 72.542969 189.273438 L 73.761719 189.253906 Z M 57.917969 190.714844 L 56.699219 190.734375 L 56.683594 189.511719 L 57.902344 189.496094 Z M 42.058594 190.953125 L 40.839844 190.972656 L 40.820312 189.753906 L 42.042969 189.734375 Z M 44.460938 189.699219 L 45.683594 189.679688 L 45.699219 190.898438 L 44.480469 190.917969 Z M 60.324219 189.457031 L 61.542969 189.441406 L 61.558594 190.660156 L 60.339844 190.679688 Z M 76.183594 189.21875 L 77.402344 189.199219 L 77.421875 190.421875 L 76.199219 190.4375 Z M 92.042969 188.980469 L 93.265625 188.960938 L 93.28125 190.179688 L 92.0625 190.199219 Z M 107.90625 188.742188 L 109.125 188.722656 L 109.144531 189.941406 L 107.921875 189.960938 Z M 123.765625 188.5 L 124.988281 188.484375 L 125.003906 189.703125 L 123.785156 189.722656 Z M 139.628906 188.261719 L 140.847656 188.246094 L 140.863281 189.464844 L 139.644531 189.484375 Z M 155.488281 188.023438 L 156.707031 188.003906 L 156.726562 189.226562 L 155.503906 189.242188 Z M 171.347656 187.785156 L 172.570312 187.765625 L 172.585938 188.984375 L 171.367188 189.003906 Z M 189.460938 166.695312 L 189.445312 165.472656 L 190.667969 165.457031 L 190.683594 166.675781 Z M 189.242188 150.839844 L 189.222656 149.621094 L 190.445312 149.605469 L 190.460938 150.824219 Z M 189.019531 134.988281 L 189 133.769531 L 190.222656 133.753906 L 190.238281 134.972656 Z M 188.796875 119.136719 L 188.777344 117.917969 L 190 117.898438 L 190.015625 119.121094 Z M 188.574219 103.285156 L 188.554688 102.066406 L 189.777344 102.046875 L 189.792969 103.265625 Z M 188.351562 87.433594 L 188.335938 86.214844 L 189.554688 86.195312 L 189.570312 87.414062 Z M 188.128906 71.582031 L 188.113281 70.363281 L 189.332031 70.34375 L 189.347656 71.5625 Z M 187.90625 55.730469 L 187.890625 54.511719 L 189.109375 54.492188 L 189.128906 55.710938 Z M 187.683594 39.878906 L 187.667969 38.660156 L 188.886719 38.640625 L 188.90625 39.859375 Z M 188.9375 42.273438 L 188.957031 43.492188 L 187.734375 43.511719 L 187.71875 42.289062 Z M 189.160156 58.125 L 189.179688 59.34375 L 187.957031 59.363281 L 187.941406 58.144531 Z M 189.382812 73.976562 L 189.402344 75.195312 L 188.179688 75.214844 L 188.164062 73.996094 Z M 189.605469 89.828125 L 189.621094 91.046875 L 188.402344 91.066406 L 188.386719 89.847656 Z M 189.828125 105.679688 L 189.84375 106.898438 L 188.625 106.917969 L 188.609375 105.699219 Z M 190.050781 121.53125 L 190.066406 122.75 L 188.847656 122.769531 L 188.828125 121.550781 Z M 190.273438 137.382812 L 190.289062 138.605469 L 189.070312 138.621094 L 189.050781 137.402344 Z M 190.496094 153.234375 L 190.511719 154.457031 L 189.292969 154.472656 L 189.273438 153.253906 Z M 190.71875 169.089844 L 190.734375 170.308594 L 189.515625 170.324219 L 189.496094 169.105469 Z M 211.800781 187.175781 L 213.019531 187.15625 L 213.039062 188.375 L 211.820312 188.394531 Z M 227.664062 186.9375 L 228.882812 186.917969 L 228.898438 188.136719 L 227.679688 188.15625 Z M 243.523438 186.695312 L 244.742188 186.679688 L 244.761719 187.898438 L 243.539062 187.917969 Z M 259.382812 186.457031 L 260.605469 186.4375 L 260.621094 187.660156 L 259.402344 187.675781 Z M 275.246094 186.21875 L 276.464844 186.199219 L 276.480469 187.417969 L 275.261719 187.4375 Z M 291.105469 185.976562 L 292.324219 185.960938 L 292.34375 187.179688 L 291.121094 187.199219 Z M 306.964844 185.738281 L 308.1875 185.71875 L 308.203125 186.941406 L 306.984375 186.957031 Z M 322.828125 185.5 L 324.046875 185.480469 L 324.066406 186.699219 L 322.84375 186.71875 Z M 338.6875 185.261719 L 339.910156 185.242188 L 339.925781 186.460938 L 338.707031 186.480469 Z M 336.296875 186.515625 L 335.074219 186.535156 L 335.058594 185.316406 L 336.277344 185.296875 Z M 320.433594 186.753906 L 319.214844 186.773438 L 319.199219 185.554688 L 320.417969 185.535156 Z M 304.574219 186.996094 L 303.355469 187.011719 L 303.335938 185.792969 L 304.558594 185.777344 Z M 288.714844 187.234375 L 287.492188 187.253906 L 287.476562 186.035156 L 288.695312 186.015625 Z M 272.851562 187.472656 L 271.632812 187.492188 L 271.613281 186.273438 L 272.835938 186.253906 Z M 256.992188 187.714844 L 255.769531 187.730469 L 255.753906 186.511719 L 256.972656 186.492188 Z M 241.128906 187.953125 L 239.910156 187.972656 L 239.894531 186.75 L 241.113281 186.734375 Z M 225.269531 188.191406 L 224.050781 188.210938 L 224.03125 186.992188 L 225.253906 186.972656 Z M 209.410156 188.429688 L 208.1875 188.449219 L 208.171875 187.230469 L 209.390625 187.210938 Z M 191.285156 209.523438 L 191.300781 210.742188 L 190.082031 210.761719 L 190.066406 209.542969 Z M 191.507812 225.375 L 191.523438 226.59375 L 190.304688 226.613281 L 190.289062 225.394531 Z M 191.730469 241.226562 L 191.75 242.445312 L 190.527344 242.464844 L 190.511719 241.246094 Z M 191.953125 257.078125 L 191.972656 258.296875 L 190.75 258.316406 L 190.734375 257.097656 Z M 192.179688 272.929688 L 192.195312 274.148438 L 190.976562 274.167969 L 190.957031 272.949219 Z M 192.402344 288.78125 L 192.417969 290 L 191.199219 290.019531 L 191.179688 288.800781 Z M 192.625 304.632812 L 192.640625 305.855469 L 191.421875 305.871094 L 191.402344 304.652344 Z M 192.847656 320.484375 L 192.863281 321.707031 L 191.644531 321.722656 L 191.628906 320.503906 Z M 193.070312 336.339844 L 193.089844 337.558594 L 191.867188 337.574219 L 191.851562 336.355469 Z M 191.816406 333.949219 L 191.800781 332.730469 L 193.019531 332.710938 L 193.035156 333.929688 Z M 191.59375 318.097656 L 191.578125 316.878906 L 192.796875 316.859375 L 192.8125 318.078125 Z M 191.371094 302.246094 L 191.351562 301.023438 L 192.574219 301.007812 L 192.589844 302.226562 Z M 191.148438 286.390625 L 191.128906 285.171875 L 192.351562 285.15625 L 192.367188 286.375 Z M 190.921875 270.539062 L 190.90625 269.320312 L 192.125 269.304688 L 192.144531 270.523438 Z M 190.699219 254.6875 L 190.683594 253.46875 L 191.902344 253.449219 L 191.921875 254.671875 Z M 190.476562 238.835938 L 190.460938 237.617188 L 191.679688 237.597656 L 191.699219 238.820312 Z M 190.253906 222.984375 L 190.238281 221.765625 L 191.457031 221.746094 L 191.472656 222.964844 Z M 190.03125 207.132812 L 190.011719 205.914062 L 191.234375 205.894531 L 191.25 207.113281 Z M 190.03125 207.132812 " fill-opacity="1" fill-rule="nonzero"/></g></g></g></g><g clip-path="url(#2fc454fe11)"><g clip-path="url(#cf51417fd1)"><g clip-path="url(#e59a3af653)"><g clip-path="url(#2385868a37)"><path fill="#000000" d="M 257.777344 131.339844 C 258.726562 132.460938 259.648438 133.605469 260.535156 134.773438 L 258.808594 136.089844 C 257.941406 134.953125 257.046875 133.835938 256.121094 132.738281 Z M 263.101562 138.320312 C 263.933594 139.53125 264.730469 140.761719 265.5 142.011719 L 263.648438 143.148438 C 262.902344 141.929688 262.121094 140.730469 261.3125 139.546875 Z M 267.695312 145.800781 C 268.402344 147.085938 269.074219 148.390625 269.710938 149.710938 L 267.757812 150.65625 C 267.132812 149.367188 266.480469 148.097656 265.792969 146.839844 Z M 271.519531 153.703125 C 272.089844 155.054688 272.625 156.417969 273.128906 157.796875 L 271.089844 158.539062 C 270.597656 157.195312 270.074219 155.867188 269.519531 154.546875 Z M 274.527344 161.949219 C 274.960938 163.351562 275.355469 164.761719 275.71875 166.183594 L 273.617188 166.71875 C 273.261719 165.332031 272.875 163.957031 272.453125 162.59375 Z M 276.695312 170.457031 C 276.988281 171.894531 277.242188 173.335938 277.460938 174.785156 L 275.316406 175.109375 C 275.101562 173.699219 274.855469 172.289062 274.570312 170.890625 Z M 278.011719 179.140625 C 278.15625 180.597656 278.269531 182.054688 278.34375 183.519531 L 276.175781 183.628906 C 276.101562 182.203125 275.996094 180.78125 275.851562 179.359375 Z M 278.457031 187.90625 C 278.457031 189.371094 278.425781 190.835938 278.355469 192.296875 L 276.1875 192.195312 C 276.257812 190.769531 276.289062 189.339844 276.289062 187.914062 Z M 278.035156 196.675781 C 277.890625 198.132812 277.710938 199.585938 277.496094 201.035156 L 275.351562 200.71875 C 275.558594 199.308594 275.734375 197.890625 275.875 196.46875 Z M 276.742188 205.363281 C 276.457031 206.796875 276.132812 208.226562 275.777344 209.648438 L 273.671875 209.117188 C 274.019531 207.734375 274.335938 206.339844 274.617188 204.941406 Z M 274.59375 213.878906 C 274.167969 215.277344 273.703125 216.667969 273.203125 218.046875 L 271.164062 217.308594 C 271.652344 215.964844 272.101562 214.613281 272.519531 213.246094 Z M 271.609375 222.136719 C 271.039062 223.488281 270.441406 224.824219 269.804688 226.144531 L 267.851562 225.210938 C 268.46875 223.921875 269.054688 222.617188 269.609375 221.300781 Z M 267.808594 230.054688 C 267.109375 231.34375 266.375 232.613281 265.613281 233.863281 L 263.761719 232.738281 C 264.503906 231.515625 265.21875 230.277344 265.902344 229.023438 Z M 263.230469 237.554688 C 262.40625 238.765625 261.550781 239.953125 260.664062 241.125 L 258.9375 239.816406 C 259.800781 238.675781 260.632812 237.515625 261.4375 236.335938 Z M 257.929688 244.558594 C 256.988281 245.679688 256.019531 246.777344 255.023438 247.855469 L 253.429688 246.382812 C 254.40625 245.332031 255.351562 244.257812 256.265625 243.164062 Z M 251.933594 251.03125 C 250.882812 252.054688 249.8125 253.054688 248.714844 254.023438 L 247.277344 252.402344 C 248.347656 251.457031 249.390625 250.484375 250.417969 249.480469 Z M 245.359375 256.855469 C 244.210938 257.773438 243.046875 258.660156 241.859375 259.515625 L 240.589844 257.761719 C 241.746094 256.921875 242.886719 256.058594 244.003906 255.164062 Z M 238.234375 262 C 237.003906 262.796875 235.753906 263.5625 234.484375 264.296875 L 233.398438 262.421875 C 234.636719 261.703125 235.855469 260.957031 237.054688 260.179688 Z M 230.628906 266.402344 C 229.328125 267.074219 228.007812 267.710938 226.671875 268.3125 L 225.777344 266.339844 C 227.082031 265.75 228.367188 265.128906 229.640625 264.476562 Z M 222.625 270.023438 C 221.257812 270.558594 219.882812 271.0625 218.492188 271.527344 L 217.804688 269.472656 C 219.160156 269.019531 220.5 268.527344 221.832031 268.007812 Z M 214.292969 272.824219 C 212.882812 273.222656 211.464844 273.585938 210.035156 273.910156 L 209.554688 271.796875 C 210.949219 271.480469 212.332031 271.125 213.707031 270.738281 Z M 205.730469 274.785156 C 204.289062 275.039062 202.839844 275.257812 201.386719 275.441406 L 201.117188 273.292969 C 202.535156 273.113281 203.945312 272.898438 205.355469 272.648438 Z M 197.011719 275.882812 C 195.554688 275.996094 194.089844 276.070312 192.625 276.109375 L 192.570312 273.941406 C 194 273.902344 195.425781 273.832031 196.851562 273.722656 Z M 188.234375 276.117188 C 186.769531 276.082031 185.304688 276.011719 183.84375 275.90625 L 184.003906 273.746094 C 185.429688 273.847656 186.855469 273.917969 188.285156 273.949219 Z M 179.472656 275.480469 C 178.015625 275.300781 176.566406 275.085938 175.125 274.835938 L 175.496094 272.699219 C 176.90625 272.945312 178.320312 273.152344 179.738281 273.328125 Z M 170.820312 273.976562 C 169.386719 273.65625 167.964844 273.296875 166.554688 272.90625 L 167.140625 270.816406 C 168.515625 271.199219 169.902344 271.546875 171.296875 271.863281 Z M 162.359375 271.625 C 160.96875 271.160156 159.589844 270.660156 158.222656 270.128906 L 159.011719 268.109375 C 160.34375 268.628906 161.691406 269.113281 163.046875 269.566406 Z M 154.179688 268.433594 C 152.839844 267.832031 151.515625 267.199219 150.210938 266.53125 L 151.199219 264.601562 C 152.472656 265.25 153.761719 265.871094 155.070312 266.457031 Z M 146.359375 264.441406 C 145.089844 263.710938 143.835938 262.945312 142.601562 262.148438 L 143.78125 260.328125 C 144.984375 261.101562 146.203125 261.847656 147.445312 262.5625 Z M 138.984375 259.683594 C 137.792969 258.828125 136.621094 257.941406 135.46875 257.023438 L 136.824219 255.328125 C 137.945312 256.222656 139.089844 257.089844 140.25 257.921875 Z M 132.121094 254.21875 C 131.046875 253.269531 129.996094 252.296875 128.964844 251.296875 L 128.910156 251.246094 L 128.882812 251.21875 L 130.394531 249.664062 L 130.421875 249.6875 L 130.476562 249.742188 C 131.480469 250.71875 132.507812 251.667969 133.558594 252.589844 Z M 125.796875 248.0625 C 124.800781 246.996094 123.835938 245.90625 122.898438 244.792969 L 124.558594 243.394531 C 125.472656 244.480469 126.417969 245.542969 127.386719 246.585938 Z M 120.144531 241.351562 C 119.261719 240.1875 118.410156 239.007812 117.585938 237.804688 L 119.378906 236.578125 C 120.179688 237.75 121.011719 238.90625 121.875 240.039062 Z M 115.191406 234.105469 C 114.429688 232.863281 113.699219 231.597656 113 230.316406 L 114.90625 229.277344 C 115.585938 230.527344 116.300781 231.757812 117.042969 232.972656 Z M 110.992188 226.402344 C 110.355469 225.085938 109.757812 223.753906 109.1875 222.40625 L 111.1875 221.566406 C 111.742188 222.878906 112.328125 224.175781 112.945312 225.460938 Z M 107.585938 218.3125 C 107.085938 216.9375 106.621094 215.554688 106.191406 214.15625 L 108.265625 213.515625 C 108.683594 214.878906 109.136719 216.230469 109.625 217.570312 Z M 105.003906 209.921875 C 104.644531 208.507812 104.320312 207.082031 104.03125 205.644531 L 106.160156 205.214844 C 106.441406 206.617188 106.757812 208.007812 107.109375 209.390625 Z M 103.273438 201.320312 C 103.054688 199.871094 102.875 198.421875 102.730469 196.964844 L 104.890625 196.746094 C 105.03125 198.167969 105.207031 199.582031 105.417969 200.996094 Z M 102.402344 192.582031 C 102.332031 191.121094 102.292969 189.660156 102.292969 188.195312 L 104.464844 188.191406 C 104.464844 189.621094 104.5 191.046875 104.570312 192.472656 Z M 102.402344 183.804688 C 102.476562 182.34375 102.585938 180.882812 102.730469 179.425781 L 104.886719 179.636719 C 104.746094 181.058594 104.640625 182.484375 104.570312 183.910156 Z M 103.273438 175.066406 C 103.488281 173.617188 103.742188 172.175781 104.03125 170.742188 L 106.15625 171.167969 C 105.875 172.566406 105.628906 173.972656 105.417969 175.386719 Z M 105.003906 166.457031 C 105.363281 165.039062 105.757812 163.628906 106.191406 162.230469 L 108.261719 162.863281 C 107.84375 164.230469 107.457031 165.605469 107.105469 166.988281 Z M 107.585938 158.0625 C 108.085938 156.6875 108.621094 155.324219 109.1875 153.972656 L 111.1875 154.8125 C 110.632812 156.128906 110.113281 157.457031 109.625 158.800781 Z M 110.996094 149.96875 C 111.628906 148.648438 112.296875 147.347656 113 146.058594 L 114.902344 147.097656 C 114.21875 148.351562 113.570312 149.621094 112.949219 150.90625 Z M 115.199219 142.253906 C 115.964844 141.003906 116.757812 139.777344 117.585938 138.570312 L 119.375 139.789062 C 118.570312 140.96875 117.796875 142.167969 117.050781 143.382812 Z M 120.15625 135 C 121.039062 133.835938 121.953125 132.691406 122.894531 131.570312 L 124.554688 132.964844 C 123.636719 134.058594 122.746094 135.175781 121.882812 136.308594 Z M 125.808594 128.277344 C 126.269531 127.777344 126.738281 127.285156 127.214844 126.796875 C 127.769531 126.222656 128.332031 125.660156 128.902344 125.105469 L 130.414062 126.65625 C 129.859375 127.199219 129.3125 127.746094 128.769531 128.304688 C 128.308594 128.78125 127.847656 129.265625 127.398438 129.75 Z M 132.121094 122.117188 C 133.21875 121.144531 134.339844 120.203125 135.484375 119.289062 L 136.835938 120.984375 C 135.722656 121.875 134.628906 122.792969 133.558594 123.738281 Z M 138.984375 116.632812 C 140.175781 115.777344 141.386719 114.949219 142.613281 114.15625 L 143.792969 115.976562 C 142.59375 116.75 141.414062 117.558594 140.253906 118.390625 Z M 146.363281 111.863281 C 147.632812 111.128906 148.921875 110.429688 150.222656 109.761719 L 151.210938 111.691406 C 149.941406 112.34375 148.6875 113.027344 147.449219 113.738281 Z M 154.183594 107.855469 C 155.519531 107.253906 156.871094 106.6875 158.234375 106.152344 L 159.027344 108.171875 C 157.695312 108.691406 156.378906 109.246094 155.074219 109.832031 Z M 162.367188 104.652344 C 163.757812 104.1875 165.15625 103.757812 166.570312 103.363281 L 167.152344 105.449219 C 165.773438 105.835938 164.410156 106.253906 163.054688 106.707031 Z M 170.828125 102.28125 C 172.257812 101.957031 173.691406 101.667969 175.136719 101.414062 L 175.507812 103.550781 C 174.101562 103.796875 172.699219 104.078125 171.308594 104.394531 Z M 179.480469 100.761719 C 180.933594 100.582031 182.390625 100.4375 183.855469 100.328125 L 184.011719 102.488281 C 182.585938 102.59375 181.167969 102.738281 179.746094 102.914062 Z M 188.242188 100.109375 C 189.707031 100.070312 191.171875 100.070312 192.636719 100.105469 L 192.578125 102.273438 C 191.152344 102.238281 189.722656 102.238281 188.292969 102.277344 Z M 197.023438 100.320312 C 198.484375 100.429688 199.941406 100.574219 201.394531 100.753906 L 201.125 102.90625 C 199.707031 102.730469 198.285156 102.589844 196.863281 102.484375 Z M 205.742188 101.40625 C 207.183594 101.65625 208.617188 101.945312 210.046875 102.269531 L 209.5625 104.382812 C 208.171875 104.066406 206.773438 103.785156 205.367188 103.539062 Z M 214.308594 103.347656 C 215.71875 103.742188 217.117188 104.171875 218.5 104.636719 L 217.8125 106.691406 C 216.460938 106.238281 215.097656 105.820312 213.722656 105.4375 Z M 222.636719 106.136719 C 224 106.667969 225.347656 107.234375 226.679688 107.835938 L 225.785156 109.8125 C 224.484375 109.226562 223.171875 108.675781 221.84375 108.152344 Z M 230.644531 109.742188 C 231.941406 110.410156 233.226562 111.109375 234.492188 111.839844 L 233.402344 113.714844 C 232.167969 113.003906 230.917969 112.324219 229.652344 111.671875 Z M 238.246094 114.136719 C 239.472656 114.929688 240.675781 115.75 241.859375 116.605469 L 240.589844 118.363281 C 239.433594 117.53125 238.261719 116.730469 237.066406 115.957031 Z M 245.371094 119.269531 C 246.507812 120.179688 247.621094 121.117188 248.714844 122.082031 L 247.277344 123.707031 C 246.210938 122.765625 245.125 121.851562 244.015625 120.964844 Z M 251.785156 124.917969 C 252.84375 125.945312 253.875 126.996094 254.875 128.070312 L 253.289062 129.550781 C 252.3125 128.503906 251.304688 127.476562 250.273438 126.476562 Z M 251.785156 124.917969 " fill-opacity="1" fill-rule="nonzero"/></g></g></g></g><g clip-path="url(#ce40c2d1e5)"><g clip-path="url(#9826d0c690)"><g clip-path="url(#72282e56aa)"><g clip-path="url(#c283b9f3be)"><path fill="#000000" d="M 254.082031 128.660156 C 252.410156 130.378906 249.664062 130.417969 247.945312 128.753906 C 246.226562 127.085938 246.191406 124.335938 247.859375 122.621094 C 249.53125 120.902344 252.277344 120.859375 253.996094 122.527344 C 255.710938 124.203125 255.753906 126.949219 254.085938 128.667969 Z M 254.082031 128.660156 " fill-opacity="1" fill-rule="evenodd"/></g></g></g></g><g clip-path="url(#0838d84ca3)"><g clip-path="url(#b18a57ca0a)"><g clip-path="url(#a9d571d817)"><g clip-path="url(#286e728353)"><path stroke-linecap="butt" transform="matrix(0.528624, -0.315549, 0.315181, 0.528007, -15.682332, 135.050865)" fill="none" stroke-linejoin="miter" d="M 381.569554 215.931313 C 377.80679 216.937762 373.944204 214.703372 372.932425 210.94712 C 371.923899 207.185413 374.164381 203.316114 377.918445 202.311864 C 381.68121 201.305415 385.547048 203.53435 386.555574 207.296057 C 387.552148 211.065417 385.325814 214.935773 381.568498 215.945478 Z M 381.569554 215.931313 " stroke="#000000" stroke-width="1.763" stroke-opacity="1" stroke-miterlimit="10"/></g></g></g></g><g clip-path="url(#8d7aca526e)"><g clip-path="url(#e266a42e4a)"><g clip-path="url(#1bdb9e2a4d)"><g clip-path="url(#c2d2446904)"><path fill="#000000" d="M 249.796875 251.71875 C 248.078125 250.050781 248.039062 247.300781 249.707031 245.585938 C 251.378906 243.867188 254.125 243.824219 255.84375 245.492188 C 257.5625 247.160156 257.601562 249.90625 255.929688 251.625 C 254.253906 253.339844 251.503906 253.386719 249.792969 251.714844 Z M 249.796875 251.71875 " fill-opacity="1" fill-rule="evenodd"/></g></g></g></g><g clip-path="url(#dbb281338a)"><g clip-path="url(#885e9ce825)"><g clip-path="url(#cdbe235a8a)"><g clip-path="url(#248e333a11)"><path stroke-linecap="butt" transform="matrix(0.528624, -0.315549, 0.315181, 0.528007, -15.682332, 135.050865)" fill="none" stroke-linejoin="miter" d="M 273.140346 384.193846 C 272.13182 380.432139 274.366854 376.559584 278.120918 375.555334 C 281.883682 374.548885 285.749521 376.77782 286.758047 380.539527 C 287.766573 384.301234 285.534792 388.168334 281.772027 389.174783 C 278.007066 390.172521 274.132528 387.945785 273.13815 384.185135 Z M 273.140346 384.193846 " stroke="#000000" stroke-width="1.763" stroke-opacity="1" stroke-miterlimit="10"/></g></g></g></g><g clip-path="url(#9676bbd71e)"><g clip-path="url(#0fa2bcd0f9)"><g clip-path="url(#d44fb296f4)"><g clip-path="url(#b4bea474d2)"><path fill="#000000" d="M 126.675781 247.558594 C 128.34375 245.839844 131.09375 245.800781 132.808594 247.464844 C 134.527344 249.132812 134.566406 251.882812 132.894531 253.597656 C 131.226562 255.316406 128.476562 255.359375 126.761719 253.691406 C 125.042969 252.027344 124.996094 249.28125 126.667969 247.558594 Z M 126.675781 247.558594 " fill-opacity="1" fill-rule="evenodd"/></g></g></g></g><g clip-path="url(#be98a7858e)"><g clip-path="url(#88a0a27d0d)"><g clip-path="url(#b1452ea831)"><g clip-path="url(#7ff7255042)"><path stroke-linecap="butt" transform="matrix(0.528624, -0.315549, 0.315181, 0.528007, -15.682332, 135.050865)" fill="none" stroke-linejoin="miter" d="M 104.882972 275.760384 C 108.640288 274.750679 112.508322 276.988325 113.514653 280.741321 C 114.523179 284.503028 112.288145 288.375583 108.528633 289.376577 C 104.771316 290.386282 100.90003 288.154091 99.896952 284.39564 C 98.885173 280.639387 101.106059 276.765776 104.872075 275.753872 Z M 104.882972 275.760384 " stroke="#000000" stroke-width="1.763" stroke-opacity="1" stroke-miterlimit="10"/></g></g></g></g><g clip-path="url(#55e64b92b7)"><g clip-path="url(#a54948a7ac)"><g clip-path="url(#111af3c4ea)"><g clip-path="url(#16ed10f143)"><path fill="#000000" d="M 130.957031 124.503906 C 132.671875 126.171875 132.710938 128.917969 131.042969 130.636719 C 129.371094 132.355469 126.621094 132.398438 124.90625 130.730469 C 123.1875 129.0625 123.148438 126.316406 124.820312 124.597656 C 126.492188 122.871094 129.242188 122.832031 130.957031 124.5 Z M 130.957031 124.503906 " fill-opacity="1" fill-rule="evenodd"/></g></g></g></g><g clip-path="url(#6e4b641426)"><g clip-path="url(#e56671da5c)"><g clip-path="url(#1df4d1a96f)"><g clip-path="url(#f0efd67723)"><path stroke-linecap="butt" transform="matrix(0.528624, -0.315549, 0.315181, 0.528007, -15.682332, 135.050865)" fill="none" stroke-linejoin="miter" d="M 213.303479 107.50005 C 214.306558 111.258501 212.074776 115.125601 208.31746 116.135306 C 204.554695 117.141755 200.683409 114.909564 199.68033 111.151113 C 198.671804 107.389406 200.903586 103.522306 204.66635 102.515857 C 208.435619 101.498499 212.303653 103.736144 213.306732 107.494595 Z M 213.303479 107.50005 " stroke="#000000" stroke-width="1.763" stroke-opacity="1" stroke-miterlimit="10"/></g></g></g></g><g clip-path="url(#f64f97201a)"><g clip-path="url(#694e3891ca)"><g clip-path="url(#3f036ce533)"><g clip-path="url(#f5ec57f851)"><path stroke-linecap="butt" transform="matrix(0.528624, -0.315549, 0.315181, 0.528007, -15.682332, 135.050865)" fill="none" stroke-linejoin="round" d="M 365.770449 213.007129 C 383.894401 280.655824 343.704932 350.268018 276.060061 368.390443 C 208.41519 386.512868 138.795133 346.326752 120.676629 278.681312 C 102.552677 211.032617 142.742146 141.420423 210.387016 123.297998 C 278.026439 105.172317 347.637796 145.360632 365.767197 213.012583 Z M 365.770449 213.007129 " stroke="#000000" stroke-width="3.164" stroke-opacity="1" stroke-miterlimit="10"/></g></g></g></g><g clip-path="url(#a7806ce0ac)"><g clip-path="url(#09261826d0)"><g clip-path="url(#a3f4bb6ed0)"><g clip-path="url(#7f25e88781)"><path fill="#6e6e6e" d="M 240.289062 136.75 L 202.492188 187.929688 L 241.710938 237.945312 L 190.546875 200.214844 L 140.457031 239.46875 L 178.257812 188.292969 L 139.035156 138.273438 L 190.207031 175.996094 Z M 240.289062 136.75 " fill-opacity="1" fill-rule="evenodd"/></g></g></g></g><g clip-path="url(#736a89793a)"><g clip-path="url(#1e3b76de6d)"><g clip-path="url(#bdfac5d3e6)"><g clip-path="url(#f69a212a55)"><path fill="#000000" d="M 301.179688 186.441406 L 202.886719 200.253906 L 191.933594 298.847656 L 178.207031 200.625 L 79.574219 189.777344 L 177.859375 175.960938 L 188.820312 77.371094 L 202.539062 175.589844 Z M 301.179688 186.441406 " fill-opacity="1" fill-rule="evenodd"/></g></g></g></g><g clip-path="url(#8692919fab)"><g clip-path="url(#0a8380e429)"><g clip-path="url(#8ee5071995)"><g clip-path="url(#0beaeb1fa6)"><path stroke-linecap="butt" transform="matrix(0.528624, -0.315549, 0.315181, 0.528007, -15.682332, 135.050865)" fill="none" stroke-linejoin="round" d="M 399.152316 335.871864 L 250.560366 273.229568 L 153.199361 401.772418 L 215.829864 253.176639 L 87.294761 155.816577 L 235.879068 218.446906 L 333.247717 89.916023 L 270.60957 238.499835 Z M 399.152316 335.871864 " stroke="#000000" stroke-width="2.091" stroke-opacity="1" stroke-miterlimit="10"/></g></g></g></g><g clip-path="url(#d45ce73048)"><g clip-path="url(#3edc19aa31)"><g clip-path="url(#c6da858c45)"><g clip-path="url(#c02de4eeb3)"><path stroke-linecap="butt" transform="matrix(0.528624, -0.315549, 0.315181, 0.528007, -15.682332, 135.050865)" fill="none" stroke-linejoin="round" d="M 239.679446 163.811919 C 240.09574 162.159394 247.1259 162.439787 246.752773 163.933157 C 245.040095 176.485133 245.830308 180.427091 245.830308 180.427091 L 240.327213 180.3121 C 240.568305 181.543703 241.313466 171.816641 239.676194 163.817373 M 281.164702 173.031464 C 282.3513 171.809699 288.302262 175.573278 287.229656 176.678215 C 279.471937 186.69026 278.183461 190.499661 278.183461 190.499661 L 273.472905 187.654932 C 273.082763 188.842209 278.592394 180.778809 281.172346 173.043431 M 312.490396 201.769448 C 314.127029 201.304908 317.401255 207.537763 315.92448 207.957273 C 304.19949 212.750118 301.176049 215.404294 301.176049 215.404294 L 298.522007 210.585208 C 297.590217 211.404395 306.390422 207.179237 312.493648 201.763993 M 325.249334 242.30123 C 326.903182 242.712556 326.623116 249.750931 325.131489 249.377367 C 312.576763 247.667085 308.63721 248.449512 308.63721 248.449512 L 308.748815 242.945441 C 307.517594 243.20098 317.259403 243.940415 325.249334 242.30123 M 316.038269 283.789213 C 317.26186 284.971743 313.500478 290.920949 312.393578 289.852544 C 302.381267 282.093412 298.576312 280.803431 298.576312 280.803431 L 301.419917 276.096081 C 300.219877 275.704426 308.277118 281.21504 316.029568 283.791411 M 287.302195 315.117812 C 287.769444 316.750904 281.532968 320.022444 281.113947 318.543943 C 276.320193 306.816162 273.668059 303.803352 273.668059 303.803352 L 278.49022 301.14401 C 277.654589 300.215528 281.875871 309.011852 287.296746 315.114556 M 246.762183 327.873266 C 246.345889 329.525791 239.310281 329.242142 239.683409 327.748773 C 241.396087 315.196796 240.611322 311.258094 240.611322 311.258094 L 246.108968 311.369829 C 245.863568 310.157846 245.115155 319.890362 246.764379 327.881977 M 205.275872 318.667886 C 204.086021 319.895106 198.135059 316.131527 199.207665 315.026589 C 206.968637 305.00909 208.25386 301.205144 208.25386 301.205144 L 212.964416 304.049873 C 213.345858 302.864794 207.837283 310.91403 205.264975 318.661374 M 173.932777 289.934299 C 172.301592 290.402095 169.027366 284.169241 170.507393 283.744275 C 182.232383 278.951431 185.247124 276.299454 185.247124 276.299454 L 187.906613 281.121795 C 188.844908 280.291699 180.047955 284.511403 173.936029 289.928845 M 161.174895 249.388353 C 159.526495 248.980283 159.806561 241.941907 161.298188 242.315471 C 173.849662 244.031207 177.792467 243.243327 177.792467 243.243327 L 177.680862 248.747398 C 178.908831 248.497313 169.181171 247.758935 161.177091 249.397063 M 170.396857 207.906882 C 169.176517 206.718897 172.937899 200.769691 174.041547 201.84355 C 184.057111 209.597227 187.862065 210.887208 187.862065 210.887208 L 185.015208 215.600013 C 186.198903 215.981901 178.136214 210.46803 170.394661 207.898171 M 199.125286 176.566315 C 198.658037 174.933224 204.894513 171.661684 205.313534 173.140185 C 210.11054 184.862512 212.759422 187.880776 212.759422 187.880776 L 207.937261 190.540117 C 208.757687 191.481707 204.539657 182.679929 199.116586 176.568514 " stroke="#000000" stroke-width="1.853" stroke-opacity="1" stroke-miterlimit="10"/></g></g></g></g><g clip-path="url(#904379f040)"><g clip-path="url(#32bcd6cbf4)"><g clip-path="url(#cef0c71ea7)"><g clip-path="url(#aac2a10cfd)"><path fill="#ffffff" d="M 198.132812 186.011719 L 205.089844 179.25 L 283.421875 184.730469 Z M 198.132812 186.011719 " fill-opacity="1" fill-rule="evenodd"/></g></g></g></g><g clip-path="url(#96c701dac8)"><g clip-path="url(#ab342f0dfb)"><g clip-path="url(#b85e1ba23e)"><g clip-path="url(#364f9d6d23)"><path fill="#ffffff" d="M 192.714844 194.867188 L 199.445312 202.144531 L 193.914062 280.109375 Z M 192.714844 194.867188 " fill-opacity="1" fill-rule="evenodd"/></g></g></g></g><g clip-path="url(#6d2e34e01b)"><g clip-path="url(#2b564a8eb5)"><g clip-path="url(#5af5dfa4ba)"><g clip-path="url(#7a86088405)"><path fill="#ffffff" d="M 182.613281 190.207031 L 175.300781 196.941406 L 97.328125 191.492188 Z M 182.613281 190.207031 " fill-opacity="1" fill-rule="evenodd"/></g></g></g></g><g clip-path="url(#3bfeeae5d2)"><g clip-path="url(#b2c677c3e3)"><g clip-path="url(#c569465cb2)"><g clip-path="url(#a12a25b2cf)"><path fill="#ffffff" d="M 188.285156 180.355469 L 181.601562 172.449219 L 187.089844 95.113281 Z M 188.285156 180.355469 " fill-opacity="1" fill-rule="evenodd"/></g></g></g></g><g clip-path="url(#8d3c36e629)"><g clip-path="url(#2fec770a4c)"><g clip-path="url(#9c2840a18d)"><g clip-path="url(#6b1ffbeacb)"><path fill="#fffcfc" d="M 199.40625 178.820312 C 204.53125 183.796875 204.644531 191.996094 199.664062 197.125 C 194.679688 202.25 186.476562 202.375 181.351562 197.398438 C 176.226562 192.421875 176.109375 184.222656 181.09375 179.097656 C 186.074219 173.96875 194.277344 173.847656 199.40625 178.820312 Z M 199.40625 178.820312 " fill-opacity="1" fill-rule="evenodd"/></g></g></g></g><g clip-path="url(#e377f7438f)"><g clip-path="url(#6eacb137f3)"><g clip-path="url(#086fae99ff)"><g clip-path="url(#87d44cdfe9)"><path stroke-linecap="butt" transform="matrix(0.528624, -0.315549, 0.315181, 0.528007, -15.682332, 135.050865)" fill="none" stroke-linejoin="round" d="M 263.550606 240.399464 C 266.555365 251.620356 259.887093 263.163854 248.670598 266.174322 C 237.451907 269.17608 225.906678 262.513125 222.90192 251.292233 C 219.897161 240.071341 226.559984 228.524587 237.778675 225.522829 C 248.99517 222.512361 260.537147 229.180771 263.550606 240.399464 Z M 263.550606 240.399464 " stroke="#000000" stroke-width="2.946" stroke-opacity="1" stroke-miterlimit="10"/></g></g></g></g><g clip-path="url(#a675e53a04)"><g clip-path="url(#cc07e0dd67)"><g clip-path="url(#e6b43da12b)"><g clip-path="url(#f134a00c81)"><path fill="#000000" d="M 179.957031 18.269531 L 185.398438 18.1875 L 194.957031 27.800781 L 194.875 21.960938 C 194.867188 21.25 194.734375 20.628906 194.484375 20.101562 C 194.234375 19.570312 193.878906 19.171875 193.417969 18.898438 C 193.167969 18.75 192.917969 18.640625 192.667969 18.582031 C 192.417969 18.519531 192.070312 18.476562 191.625 18.453125 L 191.621094 18.09375 L 198.335938 17.992188 L 198.339844 18.351562 L 198.203125 18.355469 C 197.226562 18.367188 196.488281 18.691406 195.984375 19.316406 C 195.480469 19.945312 195.242188 20.851562 195.257812 22.035156 L 195.394531 31.722656 L 195.074219 31.726562 L 183.203125 19.890625 L 183.316406 27.9375 C 183.328125 28.71875 183.429688 29.34375 183.625 29.808594 C 183.816406 30.277344 184.125 30.636719 184.550781 30.898438 C 184.898438 31.097656 185.316406 31.226562 185.808594 31.277344 C 186.082031 31.316406 186.46875 31.34375 186.976562 31.355469 L 186.980469 31.714844 L 179.90625 31.820312 L 179.902344 31.460938 C 180.625 31.414062 181.214844 31.273438 181.667969 31.050781 C 182.121094 30.828125 182.453125 30.5 182.664062 30.070312 C 182.871094 29.640625 182.972656 29.109375 182.964844 28.476562 L 182.859375 20.816406 C 182.851562 20.34375 182.742188 19.945312 182.523438 19.617188 C 182.3125 19.292969 182 19.042969 181.597656 18.871094 C 181.195312 18.699219 180.707031 18.617188 180.140625 18.625 L 179.964844 18.628906 Z M 179.957031 18.269531 " fill-opacity="1" fill-rule="nonzero"/></g></g></g></g><g clip-path="url(#f0f0e2448e)"><g clip-path="url(#1bfc976e8b)"><g clip-path="url(#9c8cb6e6b0)"><g clip-path="url(#036286d499)"><path fill="#000000" d="M 198.445312 345.875 L 198.785156 345.871094 L 198.851562 350.515625 L 198.511719 350.519531 C 198.089844 349.410156 197.613281 348.542969 197.089844 347.925781 C 196.707031 347.488281 196.230469 347.109375 195.660156 346.785156 C 195.089844 346.460938 194.453125 346.210938 193.746094 346.03125 C 193.042969 345.851562 192.332031 345.765625 191.613281 345.777344 C 191.074219 345.785156 190.597656 345.867188 190.179688 346.019531 C 189.761719 346.175781 189.410156 346.402344 189.121094 346.695312 C 188.917969 346.90625 188.757812 347.140625 188.636719 347.402344 C 188.519531 347.660156 188.460938 347.910156 188.464844 348.152344 C 188.46875 348.601562 188.648438 348.992188 189.003906 349.316406 C 189.167969 349.476562 189.402344 349.628906 189.703125 349.769531 C 190.007812 349.914062 190.398438 350.054688 190.875 350.191406 C 191.351562 350.324219 192.019531 350.488281 192.875 350.683594 C 193.109375 350.75 193.269531 350.792969 193.351562 350.800781 L 193.828125 350.914062 L 194.589844 351.09375 C 195.875 351.40625 196.8125 351.683594 197.40625 351.925781 C 197.996094 352.167969 198.503906 352.496094 198.921875 352.902344 C 199.25 353.199219 199.507812 353.550781 199.691406 353.957031 C 199.875 354.363281 199.96875 354.800781 199.976562 355.273438 C 199.980469 355.738281 199.886719 356.207031 199.695312 356.679688 C 199.5 357.148438 199.222656 357.566406 198.859375 357.925781 C 198.386719 358.425781 197.800781 358.804688 197.101562 359.058594 C 196.402344 359.316406 195.605469 359.449219 194.707031 359.464844 C 194.078125 359.472656 193.488281 359.417969 192.933594 359.300781 C 192.378906 359.183594 191.699219 358.960938 190.898438 358.640625 C 190.378906 358.4375 189.984375 358.304688 189.710938 358.234375 C 189.4375 358.164062 189.179688 358.128906 188.941406 358.132812 C 188.484375 358.140625 188.09375 358.269531 187.777344 358.515625 C 187.460938 358.761719 187.253906 359.109375 187.15625 359.558594 L 186.816406 359.5625 L 186.730469 353.300781 L 187.070312 353.292969 C 187.222656 354.402344 187.683594 355.40625 188.460938 356.296875 C 188.925781 356.824219 189.519531 357.304688 190.242188 357.75 C 190.964844 358.195312 191.71875 358.539062 192.503906 358.777344 C 193.289062 359.019531 194.035156 359.132812 194.738281 359.125 C 195.367188 359.113281 195.941406 359.003906 196.457031 358.789062 C 196.976562 358.574219 197.378906 358.28125 197.664062 357.90625 C 197.949219 357.535156 198.089844 357.113281 198.082031 356.648438 C 198.074219 356.15625 197.871094 355.71875 197.472656 355.328125 C 197.289062 355.15625 197.050781 355 196.761719 354.855469 C 196.472656 354.710938 196.097656 354.5625 195.640625 354.414062 C 195.179688 354.265625 194.554688 354.09375 193.753906 353.890625 L 192.78125 353.644531 C 191.261719 353.257812 190.207031 352.957031 189.625 352.742188 C 188.964844 352.511719 188.449219 352.28125 188.074219 352.046875 C 187.699219 351.8125 187.375 351.511719 187.097656 351.148438 C 186.6875 350.636719 186.480469 350.070312 186.472656 349.449219 C 186.460938 348.699219 186.675781 348.023438 187.113281 347.417969 C 187.550781 346.8125 188.167969 346.335938 188.964844 345.988281 C 189.761719 345.640625 190.648438 345.460938 191.625 345.445312 C 193.101562 345.421875 194.636719 345.808594 196.234375 346.609375 C 196.792969 346.878906 197.175781 347.011719 197.375 347.007812 C 197.863281 347.011719 198.21875 346.632812 198.429688 345.882812 Z M 198.445312 345.875 " fill-opacity="1" fill-rule="nonzero"/></g></g></g></g><g clip-path="url(#9f44e61b42)"><g clip-path="url(#d14d3db0db)"><g clip-path="url(#11b26c0e8a)"><g clip-path="url(#899d88047b)"><path fill="#000000" d="M 13.96875 182.992188 L 21.019531 182.886719 L 21.046875 183.242188 C 20.46875 183.257812 20.050781 183.34375 19.78125 183.496094 C 19.515625 183.648438 19.386719 183.882812 19.390625 184.199219 C 19.394531 184.511719 19.457031 184.835938 19.578125 185.175781 L 22.550781 193.054688 L 25.222656 186.140625 C 24.984375 185.484375 24.78125 185 24.605469 184.691406 C 24.429688 184.386719 24.207031 184.109375 23.9375 183.859375 C 23.699219 183.617188 23.457031 183.449219 23.207031 183.355469 C 22.957031 183.261719 22.652344 183.21875 22.296875 183.222656 L 22.292969 182.867188 L 29.648438 182.753906 L 29.652344 183.113281 L 29.292969 183.117188 C 28.710938 183.128906 28.257812 183.234375 27.9375 183.433594 C 27.617188 183.636719 27.460938 183.925781 27.464844 184.300781 C 27.46875 184.554688 27.519531 184.792969 27.613281 185.015625 L 30.644531 192.933594 L 33.40625 185.597656 C 33.542969 185.203125 33.609375 184.84375 33.601562 184.527344 C 33.597656 184.042969 33.402344 183.683594 33.019531 183.449219 C 32.636719 183.21875 32.054688 183.097656 31.261719 183.089844 L 31.238281 182.730469 L 36.683594 182.648438 L 36.6875 183.007812 C 36.324219 183.039062 36.035156 183.097656 35.8125 183.1875 C 35.589844 183.28125 35.347656 183.429688 35.085938 183.632812 C 34.546875 184.066406 34.09375 184.761719 33.726562 185.71875 L 29.617188 196.605469 L 29.257812 196.609375 L 25.410156 186.570312 L 21.515625 196.730469 L 21.136719 196.734375 L 17.066406 186.066406 C 16.710938 185.097656 16.316406 184.398438 15.882812 183.972656 C 15.449219 183.542969 14.925781 183.335938 14.3125 183.34375 L 13.972656 183.351562 Z M 13.96875 182.992188 " fill-opacity="1" fill-rule="nonzero"/></g></g></g></g><g clip-path="url(#386b2adb16)"><g clip-path="url(#cdd24bff91)"><g clip-path="url(#d146e6c890)"><g clip-path="url(#f501482019)"><path fill="#000000" d="M 345.410156 178.277344 L 359.828125 178.0625 L 359.902344 183.308594 L 359.613281 183.3125 C 359.332031 182.398438 359.085938 181.714844 358.871094 181.261719 C 358.652344 180.808594 358.375 180.382812 358.03125 179.980469 C 357.617188 179.5 357.167969 179.160156 356.6875 178.960938 C 355.886719 178.644531 354.917969 178.492188 353.78125 178.511719 L 351.109375 178.550781 L 351.203125 184.988281 L 351.917969 184.980469 C 352.988281 184.964844 353.828125 184.492188 354.441406 183.5625 C 354.757812 183.089844 354.992188 182.519531 355.136719 181.867188 C 355.210938 181.585938 355.277344 181.175781 355.332031 180.628906 L 355.671875 180.625 L 355.796875 189.507812 L 355.457031 189.515625 C 355.375 189.035156 355.273438 188.585938 355.164062 188.164062 C 355.050781 187.742188 354.925781 187.402344 354.789062 187.136719 C 354.652344 186.875 354.480469 186.613281 354.269531 186.351562 C 353.675781 185.640625 352.84375 185.296875 351.769531 185.3125 L 351.207031 185.320312 L 351.292969 191.382812 L 353.523438 191.347656 C 354.183594 191.335938 354.777344 191.28125 355.300781 191.179688 C 355.828125 191.078125 356.300781 190.925781 356.71875 190.722656 C 357.132812 190.519531 357.523438 190.253906 357.890625 189.933594 C 358.515625 189.386719 359 188.710938 359.335938 187.902344 C 359.53125 187.441406 359.730469 186.816406 359.941406 186.03125 L 360.300781 186.027344 L 360.378906 191.605469 L 345.621094 191.824219 L 345.597656 191.46875 L 345.964844 191.460938 C 347.609375 191.4375 348.417969 190.597656 348.394531 188.941406 L 348.285156 181.058594 C 348.273438 180.21875 348.0625 179.601562 347.65625 179.207031 C 347.25 178.8125 346.625 178.621094 345.785156 178.632812 L 345.414062 178.636719 L 345.40625 178.273438 Z M 345.410156 178.277344 " fill-opacity="1" fill-rule="nonzero"/></g></g></g></g><g clip-path="url(#712a537adf)"><g clip-path="url(#2de8c5556c)"><g clip-path="url(#98b4d992f7)"><g clip-path="url(#bb5732f354)"><path fill="#fff6f6" d="M 183.71875 19.371094 C 187.363281 23.007812 191.007812 26.648438 194.652344 30.285156 C 195.109375 27.457031 191.78125 26.226562 190.355469 24.195312 C 188.445312 22.535156 186.832031 20.148438 184.742188 18.925781 C 184.40625 19.109375 182.425781 18.542969 183.71875 19.371094 Z M 194.558594 18.914062 C 194.953125 19.703125 195.121094 19.347656 195.496094 18.761719 C 195.433594 18.882812 194.046875 18.570312 194.5625 18.914062 Z M 183.183594 30.628906 C 182.210938 31.402344 184.191406 31.097656 183.183594 30.628906 Z M 183.183594 30.628906 " fill-opacity="1" fill-rule="nonzero"/></g></g></g></g><g clip-path="url(#251811ef14)"><g clip-path="url(#cba241a82f)"><g clip-path="url(#63a21df5ce)"><g clip-path="url(#9ebed21954)"><path fill="#fff6f6" d="M 198.019531 347.597656 C 197.441406 347.671875 198.546875 348.53125 198.019531 347.597656 Z M 187.710938 347.839844 C 186.320312 349.585938 187.988281 351.777344 189.875 352.066406 C 192.605469 353.265625 196.199219 352.976562 198.339844 355.234375 C 198.878906 355.621094 198.679688 357.503906 199.082031 356.265625 C 200.015625 353.90625 197.296875 352.246094 195.292969 352.027344 C 192.878906 351.09375 189.453125 351.484375 187.929688 349.058594 C 187.71875 348.726562 187.761719 347.886719 187.710938 347.828125 Z M 187.523438 357.816406 C 187.988281 357.441406 189.097656 357.582031 188.089844 356.972656 C 187.074219 355.601562 187.652344 356.816406 187.523438 357.816406 Z M 187.523438 357.816406 " fill-opacity="1" fill-rule="nonzero"/></g></g></g></g><g clip-path="url(#7038f3e3ef)"><g clip-path="url(#4ea9fed12a)"><g clip-path="url(#a449f0de8b)"><g clip-path="url(#9e8edf3ac6)"><path fill="#fff6f6" d="M 16.75 183.867188 C 18.730469 187.402344 19.699219 191.484375 21.328125 195.214844 C 22.765625 192.773438 20.328125 190.332031 19.832031 187.894531 C 19.480469 186.507812 18.375 185.132812 18.761719 183.644531 C 18.339844 183.785156 16.4375 183.414062 16.75 183.867188 Z M 24.679688 183.574219 C 26.640625 186.449219 27.402344 190.40625 28.933594 193.753906 C 30.261719 196.648438 29.964844 191.210938 28.800781 190.148438 C 28.367188 187.941406 26.3125 185.828125 26.910156 183.519531 C 26.191406 183.539062 25.296875 183.515625 24.675781 183.570312 Z M 34.074219 183.527344 C 34.351562 183.636719 33.992188 183.121094 34.074219 183.527344 Z M 34.074219 183.527344 " fill-opacity="1" fill-rule="nonzero"/></g></g></g></g><g clip-path="url(#7aa11c45da)"><g clip-path="url(#93292916c1)"><g clip-path="url(#be31d400bb)"><g clip-path="url(#a2655af327)"><path fill="#fff6f6" d="M 348.464844 179.019531 C 349.726562 181.636719 348.714844 184.773438 349.105469 187.574219 C 349.113281 188.746094 349.285156 190.066406 348.542969 191.058594 C 351.773438 191.984375 350.171875 188.21875 350.492188 186.316406 C 350.457031 183.855469 350.421875 181.394531 350.386719 178.933594 C 349.824219 178.976562 348.832031 178.882812 348.46875 179.019531 Z M 358.015625 178.9375 C 358.550781 179.160156 359.375 181.078125 359.125 179.523438 C 359.738281 178.433594 357.757812 178.753906 358.015625 178.9375 Z M 354.917969 184.152344 C 354.488281 184.773438 353.53125 185.128906 354.566406 185.609375 C 355.546875 187.285156 354.816406 184.089844 354.917969 184.152344 Z M 359.53125 189.113281 C 359.097656 189.835938 358.492188 190.417969 357.832031 190.917969 C 359.953125 191.328125 359.796875 190.253906 359.53125 189.117188 Z M 359.53125 189.113281 " fill-opacity="1" fill-rule="nonzero"/></g></g></g></g><g clip-path="url(#c5f4ff1eeb)"><g clip-path="url(#68f11ce613)"><g clip-path="url(#d7dd53ed85)"><g clip-path="url(#0bf6a3636c)"><path fill="#888888" d="M 180.457031 188.992188 C 182.59375 196.011719 188.78125 198.441406 198.628906 195.652344 C 198.773438 195.707031 192.742188 199.886719 187.808594 198.640625 C 181.917969 197.148438 179.320312 189.191406 180.457031 188.992188 Z M 180.457031 188.992188 " fill-opacity="1" fill-rule="evenodd"/></g></g></g></g><g clip-path="url(#f323d8fc97)"><g clip-path="url(#8b47bea8eb)"><g clip-path="url(#bb8df6c439)"><g clip-path="url(#4b24e9c84c)"><path fill="#888888" d="M 201.078125 190.714844 C 201.796875 182.957031 194.527344 175.863281 186.769531 176.910156 C 186.660156 176.800781 191.316406 175.835938 195.921875 178.007812 C 202.554688 181.140625 202.652344 190.855469 201.074219 190.71875 Z M 201.078125 190.714844 " fill-opacity="1" fill-rule="evenodd"/></g></g></g></g></svg>